<svg xmlns="http://www.w3.org/2000/svg" xmlns:xlink="http://www.w3.org/1999/xlink" width="2000" zoomAndPan="magnify" viewBox="0 0 1500 1499.999933" height="2000" preserveAspectRatio="xMidYMid meet" version="1.0"><defs><clipPath id="d8f7da906f"><path d="M 130.5625 67 L 1350 67 L 1350 1433 L 130.5625 1433 Z M 130.5625 67 " clip-rule="nonzero"/></clipPath></defs><g clip-path="url(#d8f7da906f)"><path fill="#edeced" d="M 776.6875 68.441406 C 733.773438 75.25 703.679688 112.34375 695.195312 168.976562 C 692.730469 185.15625 692.335938 214.65625 694.210938 231.722656 C 696.578125 252.34375 702.792969 279.769531 710.191406 302.363281 L 714.039062 314.203125 L 711.078125 321.503906 C 705.851562 334.132812 697.5625 360.964844 694.503906 375.273438 C 688.289062 403.390625 685.722656 427.5625 684.539062 468.011719 C 683.75 494.648438 683.75 494.648438 680.199219 505.996094 C 674.871094 523.457031 673.195312 534.605469 673.195312 552.859375 C 673.292969 573.378906 676.15625 589.066406 683.0625 606.824219 C 685.328125 612.746094 684.738281 613.929688 673.6875 625.570312 C 659.972656 639.976562 650.601562 646.78125 592.097656 684.570312 C 575.421875 695.324219 575.324219 695.324219 576.410156 692.855469 C 579.269531 685.851562 584.402344 670.558594 587.753906 659.113281 C 603.34375 605.246094 604.429688 555.917969 591.109375 507.476562 C 565.359375 413.945312 481.597656 343.898438 385.011719 335.214844 C 346.730469 331.761719 303.519531 340.445312 264.644531 359.488281 C 216.402344 382.96875 181.378906 418.386719 157.007812 468.011719 C 147.242188 487.941406 141.125 505.402344 136.488281 526.515625 C 131.160156 550.589844 130.46875 557.496094 130.566406 581.46875 C 130.765625 613.335938 132.148438 617.578125 140.039062 609.984375 C 151.679688 598.832031 166.382812 590.546875 181.277344 586.796875 C 192.03125 584.132812 208.507812 583.835938 217.78125 586.207031 C 228.4375 588.96875 239.785156 595.183594 247.480469 602.386719 C 256.0625 610.574219 261.191406 618.074219 264.941406 628.53125 C 269.183594 640.371094 270.367188 649.542969 269.777344 665.527344 C 268.691406 695.222656 261.785156 715.449219 228.734375 785.496094 C 201.011719 844.199219 186.707031 891.359375 179.601562 947.496094 C 177.429688 964.761719 177.136719 1013.007812 179.109375 1031.851562 C 187 1106.535156 215.019531 1177.078125 257.9375 1230.648438 C 269.480469 1245.050781 292.46875 1268.535156 306.773438 1280.472656 C 313.089844 1285.800781 324.136719 1294.285156 331.4375 1299.511719 C 376.328125 1331.378906 429.703125 1353.675781 491.5625 1366.207031 C 499.75 1367.882812 507.347656 1369.460938 508.53125 1369.757812 C 509.816406 1370.054688 512.28125 1372.621094 514.351562 1375.875 C 516.328125 1379.03125 520.667969 1384.359375 524.023438 1387.8125 C 538.425781 1403.007812 555.199219 1410.207031 585.78125 1414.550781 C 601.171875 1416.820312 671.515625 1422.835938 764.355469 1430.039062 C 827.792969 1434.875 868.539062 1433.589844 898.335938 1425.894531 C 922.804688 1419.582031 934.742188 1408.136719 938.882812 1387.222656 L 940.5625 1378.636719 L 944.410156 1378.339844 C 955.164062 1377.453125 989.398438 1382.289062 1032.710938 1390.96875 C 1088.746094 1402.21875 1112.722656 1405.078125 1151.101562 1405.175781 C 1184.742188 1405.277344 1202.007812 1402.808594 1216.90625 1395.902344 C 1236.046875 1387.023438 1242.855469 1366.996094 1235.949219 1340.0625 C 1231.410156 1322.203125 1218.683594 1304.9375 1202.109375 1293.988281 C 1189.773438 1285.800781 1170.242188 1278.695312 1152.582031 1276.03125 C 1146.660156 1275.144531 1141.136719 1274.257812 1140.347656 1273.960938 C 1139.457031 1273.664062 1141.726562 1270.703125 1146.859375 1265.375 C 1175.171875 1235.777344 1194.117188 1202.628906 1202.796875 1167.210938 C 1209.011719 1141.757812 1210.691406 1118.769531 1207.828125 1094.5 C 1204.082031 1062.433594 1194.609375 1039.152344 1176.949219 1018.234375 C 1174.582031 1015.375 1172.707031 1012.90625 1172.90625 1012.710938 C 1173.101562 1012.511719 1177.542969 1010.34375 1182.671875 1007.875 C 1187.800781 1005.308594 1196.386719 999.882812 1201.613281 995.839844 C 1221.839844 980.25 1234.171875 961.109375 1241.175781 934.769531 C 1244.039062 923.917969 1244.234375 897.378906 1241.570312 884.945312 C 1237.625 866.695312 1230.816406 849.824219 1221.839844 836.308594 L 1217.5 829.695312 L 1216.808594 816.082031 C 1215.03125 777.800781 1204.871094 745.539062 1186.519531 719.890625 C 1183.363281 715.449219 1180.699219 711.207031 1180.699219 710.613281 C 1180.699219 710.023438 1182.574219 708.742188 1184.941406 707.851562 C 1189.972656 705.976562 1204.375 697.789062 1212.761719 692.164062 C 1222.824219 685.457031 1234.765625 674.898438 1241.472656 666.808594 C 1247.097656 660.003906 1248.28125 659.015625 1252.027344 658.425781 C 1264.261719 656.351562 1287.546875 645.597656 1300.078125 636.128906 C 1309.054688 629.320312 1321.980469 616.097656 1327.40625 608.109375 C 1344.175781 583.246094 1352.265625 552.957031 1349.40625 525.429688 C 1346.644531 498.203125 1335.496094 476.988281 1313.988281 458.046875 C 1296.328125 442.457031 1294.15625 438.117188 1285.277344 400.035156 C 1275.804688 359.386719 1270.082031 342.320312 1256.667969 315.089844 C 1240.386719 282.039062 1219.570312 253.921875 1193.621094 230.339844 C 1182.179688 219.882812 1163.136719 205.675781 1150.3125 198.078125 C 1144.492188 194.726562 1139.457031 191.46875 1139.164062 190.976562 C 1138.867188 190.582031 1138.273438 184.265625 1137.980469 177.164062 C 1135.808594 132.472656 1111.539062 91.429688 1077.992188 76.039062 C 1067.636719 71.203125 1062.40625 69.921875 1053.132812 69.921875 C 1037.445312 69.921875 1022.84375 77.417969 1011.890625 91.332031 C 1002.222656 103.464844 993.34375 123.886719 989.398438 143.621094 C 988.3125 148.75 987.226562 153.289062 986.929688 153.585938 C 986.636719 153.878906 979.925781 154.472656 972.132812 154.867188 C 955.558594 155.753906 937.40625 158.023438 924.28125 160.6875 C 919.152344 161.773438 914.21875 162.660156 913.234375 162.660156 C 912.050781 162.660156 909.878906 159.703125 906.523438 153.386719 C 896.066406 133.949219 879.097656 112.046875 864.988281 99.714844 C 843.777344 81.167969 821.875 70.414062 800.070312 67.949219 C 789.515625 66.765625 786.75 66.765625 776.6875 68.441406 Z M 1075.132812 112.9375 C 1079.769531 115.996094 1086.183594 122.703125 1090.128906 128.523438 C 1098.316406 140.460938 1105.71875 160.589844 1105.71875 171.144531 L 1105.71875 175.289062 L 1097.527344 172.132812 C 1093.089844 170.355469 1085.691406 167.691406 1081.25 166.210938 L 1072.960938 163.449219 L 1073.851562 154.867188 C 1075.230469 140.5625 1074.046875 119.347656 1071.484375 112.738281 C 1070.792969 110.863281 1072.171875 110.964844 1075.132812 112.9375 Z M 800.167969 118.855469 C 813.289062 122.210938 826.609375 130.992188 838.84375 144.113281 C 858.773438 165.621094 871.203125 195.613281 873.769531 228.171875 C 874.261719 233.792969 874.855469 238.824219 875.152344 239.320312 C 875.445312 239.8125 879.492188 239.023438 884.03125 237.542969 C 888.566406 236.0625 898.039062 233.894531 905.042969 232.710938 C 922.605469 229.652344 950.230469 230.339844 968.085938 234.089844 C 995.121094 239.8125 1023.433594 252.046875 1049.085938 269.113281 C 1066.84375 280.855469 1079.179688 291.015625 1093.679688 305.914062 C 1122.488281 335.414062 1139.261719 360.472656 1170.339844 420.160156 C 1190.859375 459.722656 1200.628906 476.199219 1212.070312 490.308594 C 1215.425781 494.453125 1218.878906 498.203125 1219.765625 498.496094 C 1220.753906 498.890625 1224.207031 497.414062 1228.648438 494.648438 C 1244.332031 485.179688 1260.019531 480.34375 1275.511719 480.34375 C 1301.851562 480.34375 1314.777344 489.222656 1320.398438 511.027344 C 1322.570312 519.316406 1321.980469 520.203125 1316.453125 517.734375 C 1303.628906 512.113281 1280.34375 509.152344 1262.78125 510.828125 C 1245.121094 512.605469 1230.621094 517.242188 1225.785156 522.570312 C 1222.628906 526.121094 1222.53125 530.957031 1225.6875 537.269531 C 1229.4375 544.671875 1244.53125 560.457031 1254.496094 567.261719 C 1258.640625 570.125 1262.386719 572.886719 1262.78125 573.480469 C 1263.769531 574.859375 1260.414062 582.851562 1256.273438 589.164062 C 1251.339844 596.566406 1240.484375 606.628906 1232.789062 610.871094 C 1202.699219 627.742188 1162.152344 625.570312 1129.296875 605.445312 C 1120.8125 600.214844 1103.644531 584.132812 1100.882812 578.804688 C 1099.5 576.140625 1099.601562 575.945312 1105.027344 570.816406 C 1111.242188 564.796875 1112.722656 561.144531 1110.253906 558.382812 C 1107.789062 555.71875 1103.941406 555.226562 1096.441406 556.804688 C 1087.464844 558.679688 1080.757812 562.527344 1073.0625 570.125 C 1066.054688 577.128906 1062.308594 583.640625 1062.308594 588.96875 C 1062.308594 595.875 1067.238281 596.664062 1077.007812 591.238281 C 1084.308594 587.191406 1083.222656 586.699219 1088.945312 596.859375 C 1093.089844 604.261719 1103.644531 615.703125 1111.933594 622.019531 C 1119.628906 627.742188 1137.585938 636.523438 1147.152344 639.1875 C 1170.535156 645.597656 1194.117188 645.597656 1215.230469 638.988281 C 1227.859375 635.042969 1228.546875 635.042969 1228.351562 638.59375 C 1227.464844 651.023438 1204.277344 671.445312 1173.300781 686.839844 C 1150.113281 698.480469 1122.589844 707.0625 1095.652344 711.109375 C 1088.253906 712.292969 1081.644531 713.179688 1080.855469 713.277344 C 1078.390625 713.476562 1089.539062 716.140625 1100.785156 718.113281 C 1107 719.199219 1118.742188 720.777344 1126.929688 721.566406 C 1136.300781 722.554688 1142.515625 723.636719 1143.996094 724.625 C 1147.054688 726.597656 1151.496094 736.167969 1154.058594 746.035156 C 1159.488281 767.441406 1159.289062 792.402344 1153.46875 822.691406 C 1152.582031 827.328125 1151.398438 831.867188 1150.707031 832.855469 C 1150.113281 833.9375 1145.96875 835.8125 1141.234375 837.390625 C 1119.53125 844.398438 1097.824219 859.984375 1083.320312 879.222656 L 1078.289062 885.933594 L 1071.582031 879.816406 C 1045.929688 856.632812 1009.820312 842.128906 965.71875 837.390625 C 952.695312 835.914062 953.484375 836.800781 951.808594 822.691406 C 948.554688 796.152344 940.859375 773.265625 928.230469 752.25 C 921.519531 741.199219 915.898438 734.097656 905.636719 723.738281 C 884.03125 701.835938 864.890625 689.996094 824.933594 673.714844 C 814.179688 669.277344 799.972656 663.160156 793.460938 660.003906 C 761.59375 644.511719 739.199219 623.695312 726.867188 598.339844 C 720.945312 586.207031 718.378906 576.929688 717 563.613281 C 715.125 545.65625 718.675781 527.304688 727.0625 510.433594 C 732.585938 499.484375 735.84375 494.945312 745.019531 485.472656 C 760.210938 469.789062 779.15625 460.117188 804.410156 454.988281 C 817.433594 452.421875 848.609375 452.621094 864 455.480469 C 879.886719 458.34375 897.449219 463.570312 914.710938 470.578125 C 922.804688 473.832031 929.511719 476.300781 929.710938 476.199219 C 929.90625 475.90625 923.988281 469 909.582031 452.71875 C 887.089844 427.5625 882.550781 407.140625 894.09375 382.769531 C 905.636719 358.5 926.550781 342.417969 956.644531 334.625 C 969.765625 331.269531 991.765625 330.382812 1005.875 332.75 C 1041.195312 338.667969 1075.132812 359.980469 1098.21875 390.761719 C 1109.464844 405.855469 1121.796875 428.648438 1127.914062 446.109375 C 1129.394531 450.351562 1130.875 453.605469 1131.074219 453.410156 C 1131.761719 452.621094 1128.308594 431.605469 1125.941406 422.136719 C 1117.0625 387.109375 1101.96875 358.695312 1079.671875 335.511719 C 1049.285156 303.84375 1005.378906 282.433594 954.570312 274.539062 C 937.996094 271.976562 905.042969 272.171875 889.554688 274.933594 C 870.414062 278.386719 855.222656 283.816406 840.914062 292.300781 C 836.671875 294.863281 833.023438 296.738281 832.824219 296.640625 C 832.628906 296.441406 833.613281 292.496094 834.996094 287.957031 C 846.34375 249.085938 845.257812 214.753906 832.035156 186.734375 C 829.667969 181.800781 825.917969 175.09375 823.75 171.933594 C 815.757812 160.097656 802.042969 149.539062 792.078125 147.367188 C 784.382812 145.691406 772.839844 147.46875 770.867188 150.625 C 770.570312 151.214844 772.839844 153.089844 775.898438 154.867188 C 788.035156 161.675781 800.859375 178.152344 806.386719 194.132812 C 811.710938 209.523438 812.894531 230.539062 809.246094 246.324219 C 806.878906 256.585938 805.890625 257.867188 799.085938 259.050781 C 787.539062 261.222656 784.484375 265.5625 785.371094 278.980469 C 785.960938 288.648438 788.726562 298.316406 796.125 315.976562 C 799.578125 324.363281 800.859375 328.703125 800.5625 330.777344 C 800.367188 332.453125 798.292969 337.980469 796.027344 343.109375 C 790.894531 354.652344 783.988281 374.679688 779.945312 389.578125 C 778.367188 395.792969 776.292969 402.105469 775.601562 403.585938 C 774.8125 405.066406 768.992188 410.59375 762.582031 415.820312 C 756.265625 421.148438 747.386719 429.042969 742.847656 433.382812 L 734.660156 441.273438 L 735.25 435.453125 C 739.296875 395.890625 747.289062 366.589844 762.582031 335.511719 L 767.511719 325.25 L 761.59375 310.355469 C 752.714844 288.253906 750.148438 280.855469 745.710938 265.167969 C 734.066406 223.433594 733.082031 186.929688 742.75 156.742188 C 747.386719 142.535156 756.5625 129.214844 765.738281 123.492188 C 775.207031 117.476562 788.132812 115.699219 800.167969 118.855469 Z M 341.601562 413.253906 C 368.535156 418.484375 394.679688 431.210938 416.878906 450.054688 C 445.488281 474.226562 467.09375 511.71875 475.085938 550.886719 C 478.539062 567.855469 479.527344 579.988281 478.933594 601.101562 C 478.34375 625.175781 475.679688 640.863281 468.476562 662.863281 C 459.992188 688.515625 453.085938 703.019531 427.433594 749.191406 C 396.160156 805.523438 387.675781 821.902344 375.636719 849.328125 C 357.878906 889.683594 347.125 924.210938 340.21875 962.789062 C 335.679688 988.242188 334.695312 1000.277344 334.695312 1029.382812 C 334.695312 1070.328125 338.542969 1095.289062 350.480469 1132.285156 C 367.746094 1185.855469 402.472656 1242.585938 444.109375 1285.109375 C 450.027344 1291.226562 454.566406 1296.257812 454.171875 1296.257812 C 452.199219 1296.257812 430.097656 1285.007812 419.542969 1278.597656 C 392.410156 1262.121094 364.292969 1237.457031 344.660156 1212.890625 C 327 1190.789062 310.425781 1163.265625 298.488281 1136.527344 C 284.773438 1105.648438 276.683594 1074.175781 272.933594 1037.277344 C 271.355469 1022.476562 271.355469 986.464844 272.933594 972.652344 C 277.769531 929.441406 290.199219 883.464844 309.339844 838.578125 C 317.824219 818.546875 338.050781 778.097656 352.058594 753.136719 C 377.316406 707.953125 390.734375 679.539062 395.765625 660.890625 C 400.796875 642.046875 401.683594 634.941406 401.683594 615.015625 C 401.585938 594.296875 400.007812 583.9375 394.285156 566.671875 C 379.980469 523.851562 342.980469 489.519531 300.460938 479.359375 C 271.847656 472.550781 240.476562 476.398438 213.738281 489.714844 C 196.375 498.496094 175.65625 515.960938 165.988281 530.070312 C 163.816406 533.226562 161.941406 535.296875 161.746094 534.707031 C 161.054688 532.730469 166.578125 514.382812 171.019531 503.921875 C 184.929688 470.972656 210.285156 443.445312 240.96875 428.152344 C 259.515625 418.78125 277.769531 413.648438 301.644531 410.886719 C 309.242188 410 331.539062 411.382812 341.601562 413.253906 Z M 1323.457031 550.292969 C 1322.078125 567.460938 1313.988281 587.09375 1302.542969 601.496094 C 1290.40625 616.492188 1268.109375 631.195312 1254.496094 633.070312 L 1250.746094 633.5625 L 1250.746094 628.53125 C 1250.746094 623.792969 1251.042969 623.203125 1256.960938 616.789062 C 1267.914062 604.851562 1272.847656 596.960938 1278.371094 582.457031 C 1281.035156 575.550781 1281.132812 575.550781 1288.136719 571.898438 C 1292.085938 569.925781 1298.003906 566.277344 1301.457031 563.808594 C 1307.574219 559.46875 1321.78125 545.164062 1321.78125 543.289062 C 1321.78125 542.796875 1322.273438 542.695312 1322.867188 543.089844 C 1323.65625 543.484375 1323.851562 545.953125 1323.457031 550.292969 Z M 720.75 660.496094 C 725.976562 665.132812 733.773438 671.347656 738.015625 674.40625 C 745.609375 679.734375 745.710938 679.933594 743.933594 681.804688 C 741.566406 684.46875 721.734375 700.453125 704.371094 713.671875 C 645.371094 758.664062 640.441406 762.707031 610.941406 789.246094 C 524.21875 867.285156 470.054688 956.671875 450.222656 1054.640625 C 444.898438 1080.980469 443.515625 1093.511719 443.023438 1123.601562 C 442.429688 1152.3125 443.613281 1169.480469 447.757812 1195.132812 C 449.433594 1205.292969 456.242188 1235.285156 458.214844 1240.710938 C 460.78125 1248.210938 448.546875 1227.6875 440.554688 1211.410156 C 421.316406 1171.648438 412.4375 1135.046875 410.5625 1087.097656 C 408.195312 1028.496094 423.785156 962.984375 454.863281 901.027344 C 476.863281 857.125 502.808594 821.605469 538.625 786.582031 C 565.558594 760.242188 584.5 745.34375 638.070312 708.246094 C 670.628906 685.753906 686.910156 673.421875 700.226562 661.484375 C 705.949219 656.253906 710.683594 652.109375 710.882812 652.011719 C 711.078125 652.011719 715.519531 655.859375 720.75 660.496094 Z M 837.167969 723.046875 C 848.316406 724.328125 857.097656 726.597656 866.960938 730.839844 C 898.039062 744.257812 916.980469 771.191406 923.394531 811.347656 C 924.085938 815.984375 924.578125 827.425781 924.480469 839.265625 C 924.480469 858.800781 924.480469 859.195312 926.550781 859.6875 C 927.636719 859.886719 935.035156 860.28125 942.929688 860.578125 C 1005.378906 862.847656 1050.074219 882.382812 1073.652344 917.800781 C 1090.425781 943.054688 1096.246094 974.824219 1087.367188 992.683594 C 1084.898438 997.613281 1080.460938 1003.238281 1078.980469 1003.238281 C 1078.585938 1003.238281 1077.992188 1000.671875 1077.597656 997.515625 C 1075.824219 982.421875 1070.496094 970.386719 1061.8125 961.800781 C 1058.855469 958.84375 1056.191406 956.769531 1055.894531 956.96875 C 1055.597656 957.261719 1056.289062 960.125 1057.375 963.28125 C 1062.898438 979.265625 1063.785156 1000.378906 1059.445312 1009.453125 C 1055.300781 1018.039062 1043.167969 1020.601562 1032.609375 1015.175781 C 1027.085938 1012.316406 1025.113281 1010.441406 1016.628906 1000.277344 C 1007.945312 989.917969 984.664062 964.957031 982.394531 963.773438 C 981.308594 963.183594 977.261719 964.761719 968.085938 969.398438 C 952.203125 977.488281 930.792969 984.59375 913.824219 987.453125 C 892.710938 991.105469 869.035156 989.523438 851.078125 983.40625 C 810.234375 969.496094 782.902344 938.222656 771.359375 891.949219 C 767.21875 875.871094 766.132812 866.199219 765.933594 847.257812 L 765.835938 830.878906 L 763.664062 834.433594 C 759.71875 840.84375 752.417969 859.097656 749.953125 868.863281 C 746.5 882.183594 745.808594 897.871094 747.976562 911.683594 C 756.363281 964.957031 798.789062 1006.296875 857.6875 1018.628906 C 868.738281 1020.996094 872.78125 1021.390625 888.171875 1021.390625 C 898.632812 1021.390625 908.992188 1020.898438 913.332031 1020.109375 C 932.964844 1016.753906 953.484375 1010.046875 969.765625 1001.757812 L 978.347656 997.417969 L 981.605469 1000.082031 C 984.957031 1002.84375 990.089844 1008.269531 1001.433594 1021.097656 C 1008.933594 1029.679688 1018.601562 1036.78125 1027.28125 1039.941406 C 1032.117188 1041.714844 1035.273438 1042.109375 1044.546875 1042.109375 C 1057.277344 1042.109375 1060.53125 1041.222656 1071.1875 1034.910156 C 1074.738281 1032.835938 1079.671875 1030.371094 1082.136719 1029.382812 C 1089.832031 1026.621094 1100.488281 1017.050781 1105.617188 1008.46875 C 1106.605469 1006.789062 1106.800781 1006.789062 1108.085938 1008.367188 C 1111.339844 1012.710938 1115.484375 1039.347656 1116.273438 1061.449219 C 1118.445312 1124.785156 1096.542969 1190.199219 1056.585938 1240.019531 C 1037.050781 1264.390625 1014.949219 1283.234375 985.253906 1300.992188 C 972.230469 1308.785156 947.664062 1320.328125 934.640625 1324.769531 L 922.804688 1328.714844 L 913.921875 1320.132812 C 904.058594 1310.660156 899.816406 1307.40625 888.667969 1301.386719 C 874.359375 1293.59375 852.953125 1288.066406 832.628906 1286.882812 C 827.300781 1286.589844 821.578125 1286.09375 819.800781 1285.800781 L 816.644531 1285.304688 L 820.886719 1279.683594 C 843.972656 1249.394531 857.6875 1215.75 862.128906 1178.457031 C 863.804688 1164.25 862.816406 1136.726562 860.054688 1123.207031 C 848.019531 1062.730469 800.5625 1011.03125 737.519531 990.019531 C 684.34375 972.257812 632.25 978.574219 586.472656 1008.46875 C 548.488281 1033.230469 516.621094 1078.417969 501.824219 1128.238281 C 500.046875 1134.355469 498.46875 1139.191406 498.273438 1138.992188 C 497.679688 1138.402344 500.246094 1115.117188 502.515625 1100.910156 C 505.671875 1081.179688 508.632812 1068.945312 514.847656 1049.804688 C 532.40625 996.035156 560.230469 945.03125 599.003906 895.207031 C 624.949219 861.859375 670.726562 815.09375 710.09375 781.648438 C 732.6875 762.511719 761.59375 741.296875 773.332031 735.378906 C 794.050781 724.820312 816.054688 720.578125 837.167969 723.046875 Z M 1181.785156 859.195312 C 1196.878906 863.832031 1207.238281 875.476562 1213.257812 894.21875 C 1216.3125 903.789062 1216.414062 919.574219 1213.355469 931.019531 C 1205.757812 960.027344 1181.585938 985.28125 1155.933594 991.105469 C 1148.535156 992.683594 1140.742188 992.1875 1139.953125 990.019531 C 1139.65625 989.328125 1142.023438 984.789062 1145.179688 979.953125 C 1153.664062 966.933594 1160.964844 948.777344 1160.964844 940.984375 C 1160.964844 938.8125 1160.769531 938.914062 1157.414062 942.167969 C 1155.441406 943.945312 1148.535156 952.035156 1142.121094 960.027344 C 1130.777344 974.132812 1122.984375 981.535156 1119.53125 981.535156 C 1115.582031 981.535156 1114.792969 979.460938 1114.300781 967.226562 L 1113.808594 955.488281 L 1123.574219 935.460938 C 1128.902344 924.410156 1133.539062 914.445312 1133.835938 913.261719 C 1134.527344 911.289062 1134.527344 911.289062 1130.578125 913.457031 C 1125.152344 916.515625 1117.457031 923.421875 1112.128906 929.933594 L 1107.691406 935.359375 L 1106.113281 931.613281 C 1105.324219 929.441406 1102.558594 923.523438 1100.09375 918.292969 C 1094.863281 907.242188 1094.964844 906.355469 1101.96875 895.601562 C 1119.925781 867.78125 1156.230469 851.203125 1181.785156 859.195312 Z M 1141.234375 1298.625 C 1160.078125 1301.191406 1170.4375 1304.148438 1183.164062 1310.859375 C 1201.21875 1320.328125 1213.257812 1339.074219 1213.257812 1357.722656 C 1213.257812 1365.714844 1209.902344 1370.054688 1202.207031 1372.324219 C 1198.261719 1373.410156 1196.484375 1372.519531 1196.484375 1369.167969 C 1196.484375 1364.332031 1194.410156 1356.144531 1191.453125 1349.730469 C 1186.617188 1338.878906 1174.484375 1329.210938 1163.433594 1327.234375 L 1159.585938 1326.546875 L 1163.53125 1331.082031 C 1171.820312 1340.554688 1176.753906 1353.28125 1176.753906 1365.417969 C 1176.753906 1375.183594 1175.566406 1376.269531 1164.125 1376.960938 C 1153.46875 1377.550781 1152.480469 1376.960938 1151.496094 1370.449219 C 1149.421875 1356.042969 1140.050781 1342.429688 1128.902344 1337.695312 C 1124.660156 1335.917969 1115.582031 1334.042969 1115.582031 1335.03125 C 1115.582031 1335.324219 1117.359375 1337.695312 1119.53125 1340.257812 C 1126.238281 1348.25 1129.691406 1356.636719 1130.183594 1365.910156 C 1130.777344 1376.761719 1129.890625 1377.652344 1119.136719 1376.664062 C 1108.480469 1375.777344 1105.125 1374.492188 1087.859375 1364.925781 C 1071.484375 1355.75 1062.207031 1351.507812 1042.179688 1344.207031 C 1034.582031 1341.441406 1028.269531 1338.582031 1027.972656 1337.890625 C 1027.085938 1335.03125 1049.183594 1317.171875 1062.011719 1310.363281 C 1072.273438 1304.9375 1085.492188 1300.5 1096.34375 1298.820312 C 1107.988281 1297.046875 1128.308594 1296.949219 1141.234375 1298.625 Z M 834.007812 1311.15625 C 851.964844 1312.929688 868.34375 1317.863281 880.578125 1324.964844 C 889.652344 1330.394531 901.394531 1342.824219 905.636719 1351.507812 C 912.34375 1365.21875 913.726562 1380.214844 908.992188 1387.222656 C 906.523438 1390.871094 901.394531 1393.730469 896.558594 1394.128906 C 893.402344 1394.421875 893.105469 1394.226562 892.808594 1391.464844 C 891.332031 1374.789062 885.214844 1360.78125 875.546875 1351.902344 C 868.441406 1345.289062 857.785156 1339.863281 850.191406 1338.976562 L 844.960938 1338.382812 L 853.050781 1346.179688 C 859.859375 1352.691406 861.929688 1355.355469 865.480469 1362.851562 C 871.992188 1376.171875 873.867188 1393.042969 869.328125 1397.976562 C 866.269531 1401.328125 847.722656 1403.402344 845.550781 1400.539062 C 845.058594 1399.949219 844.074219 1396.199219 843.382812 1392.449219 C 841.507812 1381.792969 835.589844 1370.546875 828.78125 1364.429688 C 819.800781 1356.4375 807.964844 1351.902344 798.195312 1352.691406 L 794.546875 1352.984375 L 801.058594 1357.722656 C 813.289062 1366.699219 819.703125 1377.75 821.183594 1392.351562 C 821.972656 1400.34375 820.691406 1402.019531 813.488281 1402.613281 C 803.328125 1403.402344 792.472656 1401.132812 769.78125 1393.4375 C 746.398438 1385.542969 727.753906 1380.609375 696.871094 1374.296875 C 686.117188 1372.027344 676.945312 1369.957031 676.449219 1369.660156 C 674.476562 1368.476562 675.859375 1366.207031 681.777344 1361.074219 C 725.878906 1322.796875 778.265625 1305.53125 834.007812 1311.15625 Z M 834.007812 1311.15625 " fill-opacity="1" fill-rule="nonzero"/></g><path fill="#edeced" d="M 989.300781 377.640625 C 980.222656 380.597656 973.414062 384.546875 967.59375 390.464844 C 950.03125 408.027344 945.199219 436.539062 954.964844 464.558594 C 960.097656 479.359375 969.765625 493.761719 980.714844 502.9375 C 989.890625 510.730469 993.738281 511.324219 1009.625 507.769531 C 1018.007812 505.898438 1022.449219 505.601562 1041.589844 505.601562 C 1063.390625 505.503906 1063.984375 505.601562 1076.121094 508.660156 C 1082.925781 510.335938 1091.214844 512.703125 1094.667969 513.691406 C 1098.023438 514.777344 1100.785156 515.269531 1100.785156 514.875 C 1100.785156 514.382812 1097.035156 510.632812 1092.496094 506.292969 L 1084.308594 498.597656 L 1083.714844 482.316406 C 1083.125 463.277344 1081.347656 452.226562 1076.515625 437.921875 C 1066.15625 406.84375 1043.5625 383.164062 1018.796875 377.246094 C 1010.214844 375.273438 996.105469 375.371094 989.300781 377.640625 Z M 1023.632812 402.996094 C 1030.242188 406.25 1036.261719 413.15625 1038.136719 419.472656 C 1039.910156 425.390625 1039.910156 426.378906 1038.53125 431.308594 C 1036.261719 439.5 1027.578125 445.714844 1018.207031 445.8125 C 1002.027344 445.8125 989.101562 429.730469 993.148438 414.539062 C 996.5 402.207031 1011.101562 396.679688 1023.632812 402.996094 Z M 1023.632812 402.996094 " fill-opacity="1" fill-rule="nonzero"/></svg>